<?xml version="1.0" standalone="no"?>
<!DOCTYPE svg PUBLIC "-//W3C//DTD SVG 20010904//EN" "http://www.w3.org/TR/2001/REC-SVG-20010904/DTD/svg10.dtd">
<svg version="1.0" xmlns="http://www.w3.org/2000/svg" width="600.000000pt" height="144.000000pt" viewBox="0 0 600.000000 144.000000" preserveAspectRatio="xMidYMid meet">
  <g transform="translate(0.000000,144.000000) scale(0.066667,-0.066667)" fill="#ffffff" stroke="none">
    <path d="M4748 1972 c-99 -19 -400 -73 -668 -121 -268 -47 -492 -92 -497 -100 -13 -20 18 -116 38 -117 9 -1 84 -3 167 -4 245 -4 267 -26 369 -364 85 -283 95 -284 177 -17 111 358 130 377 381 382 91 2 170 9 176 15 11 12 119 333 119 353 0 17 -68 10 -262 -27z"/>
    <path d="M5291 1500 c-271 -68 -377 -239 -378 -607 -1 -469 151 -640 570 -644 401 -3 582 167 603 570 18 351 -84 571 -305 657 -84 32 -395 47 -490 24z m357 -247 c164 -68 211 -518 71 -684 -122 -145 -398 -115 -484 53 -86 170 -42 527 77 612 78 57 226 65 336 19z"/>
    <path d="M7810 1486 c-248 -81 -346 -250 -347 -601 -1 -478 243 -699 703 -634 337 47 477 234 477 634 0 340 -93 513 -321 597 -103 38 -402 40 -512 4z m397 -235 c205 -104 204 -634 -1 -737 -309 -156 -541 142 -438 560 45 183 260 269 439 177z"/>
    <path d="M352 1466 c-4 -18 -6 -293 -4 -611 l5 -577 382 0 c423 0 446 4 543 107 117 124 102 365 -30 481 l-55 48 47 49 c173 183 85 468 -161 521 -161 34 -717 21 -727 -18z m661 -228 c55 -54 51 -146 -7 -204 -43 -43 -46 -44 -210 -44 l-166 0 0 143 0 142 173 0 c164 0 175 -2 210 -37z m25 -504 c41 -41 45 -53 38 -114 -13 -117 -40 -132 -259 -137 l-187 -5 0 151 0 151 181 0 181 0 46 -46z"/>
    <path d="M1541 1491 c-6 -6 -11 -283 -11 -616 l0 -605 143 0 142 0 0 203 0 203 122 -4 123 -4 89 -199 90 -199 148 0 c180 0 176 -17 50 249 -89 189 -96 208 -71 221 267 145 227 612 -63 732 -51 21 -743 39 -762 19z m634 -257 c121 -61 108 -274 -18 -318 -26 -9 -113 -16 -194 -16 l-148 0 0 180 0 180 154 0 c116 0 166 -6 206 -26z"/>
    <path d="M3008 1482 c-74 -206 -398 -1180 -398 -1194 0 -14 33 -18 137 -15 l137 5 32 90 32 90 235 4 236 4 29 -94 28 -94 146 -5 147 -4 -8 42 c-5 23 -96 298 -203 612 l-194 570 -175 4 c-131 3 -176 -1 -181 -15z m267 -553 c39 -124 67 -232 62 -240 -11 -17 -302 -19 -313 -2 -5 9 93 342 133 449 21 57 51 4 118 -207z"/>
    <path fill="#58DDDD" d="M3682 1481 c-5 -13 75 -268 177 -568 103 -300 194 -566 202 -590 l14 -45 173 -5 174 -4 52 154 c29 85 121 355 205 601 84 245 148 453 143 462 -14 23 -211 6 -253 -21 -28 -18 -189 -476 -273 -775 -17 -62 -81 -68 -81 -8 0 54 -243 756 -270 780 -42 38 -250 53 -263 19z"/>
    <path d="M6310 1490 c-5 -5 -10 -282 -10 -615 l0 -605 142 0 142 0 4 199 5 199 119 0 120 0 89 -199 89 -199 147 0 c80 0 150 6 155 14 5 8 -38 108 -95 223 l-105 208 68 58 c254 211 147 651 -173 712 -89 17 -681 21 -697 5z m664 -266 c83 -76 73 -239 -19 -295 -39 -24 -75 -29 -209 -29 l-161 0 0 181 0 182 178 -5 c151 -5 184 -10 211 -34z"/>
  </g>
</svg>